Coordinates
version=1
nRows=7
nColumns=40
inDegrees=yes

Units are S.I. units (second, meters, Newtons, ...)
If the header above contains a line with 'inDegrees', this indicates whether rotational values are in degrees (yes) or radians (no).

endheader
time	pelvis_tilt	pelvis_list	pelvis_rotation	pelvis_tx	pelvis_ty	pelvis_tz	hip_flexion_r	hip_adduction_r	hip_rotation_r	knee_angle_r	knee_angle_r_beta	ankle_angle_r	subtalar_angle_r	mtp_angle_r	hip_flexion_l	hip_adduction_l	hip_rotation_l	knee_angle_l	knee_angle_l_beta	ankle_angle_l	subtalar_angle_l	mtp_angle_l	lumbar_extension	lumbar_bending	lumbar_rotation	arm_flex_r	arm_add_r	arm_rot_r	elbow_flex_r	pro_sup_r	wrist_flex_r	wrist_dev_r	arm_flex_l	arm_add_l	arm_rot_l	elbow_flex_l	pro_sup_l	wrist_flex_l	wrist_dev_l
      1.03000000	      3.04455875	     -9.46771969	     83.12720954	      0.22328570	      0.88450255	     -0.88346489	    -15.37576316	      5.45477284	      2.19687148	      5.26286573	      0.09185434	      6.93038271	      0.00000000	      0.00000000	     39.59516344	     -4.78759906	     -7.89883156	      6.18416665	      0.10793407	      1.87781945	      0.00000000	      0.00000000	      2.55298239	      2.93965461	      9.94219530	      0.00000000	      0.00000000	      0.00000000	      0.00000000	      0.00000000	      0.00000000	      0.00000000	      0.00000000	      0.00000000	      0.00000000	      0.00000000	      0.00000000	      0.00000000	      0.00000000
      1.04000000	      2.62690849	     -9.40081752	     83.03045282	      0.22275565	      0.88338604	     -0.90332790	    -15.22638268	      4.66326641	      1.52582824	      7.66293837	      0.13374350	      5.29542998	      0.00000000	      0.00000000	     39.62615442	     -4.36261360	     -8.23749460	      8.08260590	      0.14106809	      0.65853964	      0.00000000	      0.00000000	      2.73789606	      2.46983316	      9.84536540	      0.00000000	      0.00000000	      0.00000000	      0.00000000	      0.00000000	      0.00000000	      0.00000000	      0.00000000	      0.00000000	      0.00000000	      0.00000000	      0.00000000	      0.00000000	      0.00000000
      1.05000000	      2.20300157	     -9.29938598	     82.97972568	      0.22218351	      0.88279068	     -0.92334942	    -14.79044239	      3.84074270	      0.77090953	     10.55365816	      0.18419608	      3.28358848	      0.00000000	      0.00000000	     39.57871037	     -3.92972332	     -8.51134964	     10.11659037	      0.17656781	     -0.63415657	      0.00000000	      0.00000000	      2.90608825	      1.95850419	      9.67971607	      0.00000000	      0.00000000	      0.00000000	      0.00000000	      0.00000000	      0.00000000	      0.00000000	      0.00000000	      0.00000000	      0.00000000	      0.00000000	      0.00000000	      0.00000000	      0.00000000
      1.06000000	      1.86480571	     -9.05403231	     82.95671358	      0.22163071	      0.88291413	     -0.94343254	    -14.23462183	      3.07030920	      0.10659380	     13.83108080	      0.24139790	      0.80881114	      0.00000000	      0.00000000	     39.29522572	     -3.57354438	     -8.67976182	     12.16192570	      0.21226565	     -1.98174754	      0.00000000	      0.00000000	      2.90584952	      1.52331177	      9.47618185	      0.00000000	      0.00000000	      0.00000000	      0.00000000	      0.00000000	      0.00000000	      0.00000000	      0.00000000	      0.00000000	      0.00000000	      0.00000000	      0.00000000	      0.00000000	      0.00000000
      1.07000000	      1.51976903	     -8.77420472	     82.94934981	      0.22097739	      0.88355359	     -0.96346181	    -13.33674073	      2.24437825	     -0.57990751	     17.65431055	      0.30812585	     -1.96121726	      0.00000000	      0.00000000	     38.89977935	     -3.20343272	     -8.82849115	     14.15725121	      0.24709065	     -3.23525194	      0.00000000	      0.00000000	      2.85599785	      1.08620029	      9.22175569	      0.00000000	      0.00000000	      0.00000000	      0.00000000	      0.00000000	      0.00000000	      0.00000000	      0.00000000	      0.00000000	      0.00000000	      0.00000000	      0.00000000	      0.00000000	      0.00000000
      1.08000000	      1.10689502	     -8.63120981	     82.92894310	      0.22023764	      0.88441156	     -0.98321349	    -11.80077671	      1.33120583	     -1.10826104	     22.20786619	      0.38760038	     -4.55419189	     -0.00000000	     -0.00000000	     38.54131907	     -2.75969735	     -8.87476558	     15.96578143	      0.27865545	     -4.31511200	     -0.00000000	     -0.00000000	      2.96707406	      0.60504305	      8.92229000	      0.00000000	      0.00000000	     -0.00000000	      0.00000000	      0.00000000	      0.00000000	      0.00000000	      0.00000000	     -0.00000000	     -0.00000000	      0.00000000	      0.00000000	     -0.00000000	      0.00000000
      1.09000000	      0.71220499	     -8.29144658	     82.92267537	      0.21948064	      0.88596713	     -1.00289253	    -10.31146211	      0.42254700	     -1.42445365	     26.83030947	      0.46827724	     -7.49974512	      0.00000000	      0.00000000	     37.89052301	     -2.31908552	     -9.02057239	     17.68168130	      0.30860356	     -5.09760536	      0.00000000	      0.00000000	      2.81128584	      0.10644692	      8.60190795	      0.00000000	      0.00000000	      0.00000000	      0.00000000	      0.00000000	      0.00000000	      0.00000000	      0.00000000	      0.00000000	      0.00000000	      0.00000000	      0.00000000	      0.00000000	      0.00000000
